<?xml version="1.0" encoding="UTF-8" standalone="no"?>
<svg
   version="1.1"
   viewBox="0 0 318.36218 318.36218"
   fill="none"
   stroke="none"
   stroke-linecap="square"
   stroke-miterlimit="10"
   id="svg14"
   width="318.36218"
   height="318.36218"
   xmlns="http://www.w3.org/2000/svg"
   xmlns:svg="http://www.w3.org/2000/svg">
  <defs
     id="defs14" />
  <clipPath
     id="p.0">
    <path
       d="M 0,0 H 960 V 540 H 0 Z"
       clip-rule="nonzero"
       id="path1" />
  </clipPath>
  <g
     clip-path="url(#p.0)"
     id="g14"
     transform="translate(-320.8189,-110.8189)">
    <path
       fill="#fff2cc"
       d="m 328.8189,131.41757 v 0 c 0,-6.95805 5.64059,-12.59867 12.59866,-12.59867 h 107.08612 c 3.34137,0 6.5459,1.32735 8.9086,3.69006 2.3627,2.36271 3.69007,5.56724 3.69007,8.90861 v 50.3932 c 0,6.95806 -5.64063,12.59868 -12.59867,12.59868 H 341.41756 c -6.95807,0 -12.59866,-5.64062 -12.59866,-12.59868 z"
       fill-rule="evenodd"
       id="path3" />
    <path
       stroke="#bf9000"
       stroke-width="16"
       stroke-linejoin="round"
       stroke-linecap="butt"
       d="m 328.8189,131.41757 v 0 c 0,-6.95805 5.64059,-12.59867 12.59866,-12.59867 h 107.08612 c 3.34137,0 6.5459,1.32735 8.9086,3.69006 2.3627,2.36271 3.69007,5.56724 3.69007,8.90861 v 50.3932 c 0,6.95806 -5.64063,12.59868 -12.59867,12.59868 H 341.41756 c -6.95807,0 -12.59866,-5.64062 -12.59866,-12.59868 z"
       fill-rule="evenodd"
       id="path4" />
    <path
       fill="#fff2cc"
       d="m 498.89764,131.41757 v 0 c 0,-6.95805 5.64063,-12.59867 12.59866,-12.59867 h 107.08609 c 3.34143,0 6.5459,1.32735 8.90863,3.69006 2.36274,2.36271 3.69007,5.56724 3.69007,8.90861 v 50.3932 c 0,6.95806 -5.64063,12.59868 -12.5987,12.59868 H 511.4963 c -6.95804,0 -12.59866,-5.64062 -12.59866,-12.59868 z"
       fill-rule="evenodd"
       id="path5" />
    <path
       stroke="#bf9000"
       stroke-width="16"
       stroke-linejoin="round"
       stroke-linecap="butt"
       d="m 498.89764,131.41757 v 0 c 0,-6.95805 5.64063,-12.59867 12.59866,-12.59867 h 107.08609 c 3.34143,0 6.5459,1.32735 8.90863,3.69006 2.36274,2.36271 3.69007,5.56724 3.69007,8.90861 v 50.3932 c 0,6.95806 -5.64063,12.59868 -12.5987,12.59868 H 511.4963 c -6.95804,0 -12.59866,-5.64062 -12.59866,-12.59868 z"
       fill-rule="evenodd"
       id="path6" />
    <path
       fill="#fff2cc"
       d="m 328.8189,244.8034 v 0 c 0,-6.95807 5.64059,-12.59868 12.59866,-12.59868 h 107.08612 c 3.34137,0 6.5459,1.32735 8.9086,3.69006 2.3627,2.36272 3.69007,5.56723 3.69007,8.90862 v 50.39319 c 0,6.95807 -5.64063,12.59869 -12.59867,12.59869 H 341.41756 c -6.95807,0 -12.59866,-5.64062 -12.59866,-12.59869 z"
       fill-rule="evenodd"
       id="path7" />
    <path
       stroke="#bf9000"
       stroke-width="16"
       stroke-linejoin="round"
       stroke-linecap="butt"
       d="m 328.8189,244.8034 v 0 c 0,-6.95807 5.64059,-12.59868 12.59866,-12.59868 h 107.08612 c 3.34137,0 6.5459,1.32735 8.9086,3.69006 2.3627,2.36272 3.69007,5.56723 3.69007,8.90862 v 50.39319 c 0,6.95807 -5.64063,12.59869 -12.59867,12.59869 H 341.41756 c -6.95807,0 -12.59866,-5.64062 -12.59866,-12.59869 z"
       fill-rule="evenodd"
       id="path8" />
    <path
       fill="#fff2cc"
       d="m 498.89764,244.8034 v 0 c 0,-6.95807 5.64063,-12.59868 12.59866,-12.59868 h 107.08609 c 3.34143,0 6.5459,1.32735 8.90863,3.69006 2.36274,2.36272 3.69007,5.56723 3.69007,8.90862 v 50.39319 c 0,6.95807 -5.64063,12.59869 -12.5987,12.59869 H 511.4963 c -6.95804,0 -12.59866,-5.64062 -12.59866,-12.59869 z"
       fill-rule="evenodd"
       id="path9" />
    <path
       stroke="#bf9000"
       stroke-width="16"
       stroke-linejoin="round"
       stroke-linecap="butt"
       d="m 498.89764,244.8034 v 0 c 0,-6.95807 5.64063,-12.59868 12.59866,-12.59868 h 107.08609 c 3.34143,0 6.5459,1.32735 8.90863,3.69006 2.36274,2.36272 3.69007,5.56723 3.69007,8.90862 v 50.39319 c 0,6.95807 -5.64063,12.59869 -12.5987,12.59869 H 511.4963 c -6.95804,0 -12.59866,-5.64062 -12.59866,-12.59869 z"
       fill-rule="evenodd"
       id="path10" />
    <path
       fill="#fff2cc"
       d="m 328.8189,358.18924 v 0 c 0,-6.95807 5.64059,-12.59869 12.59866,-12.59869 h 107.08612 c 3.34137,0 6.5459,1.32736 8.9086,3.69006 2.3627,2.36273 3.69007,5.56723 3.69007,8.90863 v 50.39319 c 0,6.95807 -5.64063,12.59866 -12.59867,12.59866 H 341.41756 c -6.95807,0 -12.59866,-5.64059 -12.59866,-12.59866 z"
       fill-rule="evenodd"
       id="path11" />
    <path
       stroke="#bf9000"
       stroke-width="16"
       stroke-linejoin="round"
       stroke-linecap="butt"
       d="m 328.8189,358.18924 v 0 c 0,-6.95807 5.64059,-12.59869 12.59866,-12.59869 h 107.08612 c 3.34137,0 6.5459,1.32736 8.9086,3.69006 2.3627,2.36273 3.69007,5.56723 3.69007,8.90863 v 50.39319 c 0,6.95807 -5.64063,12.59866 -12.59867,12.59866 H 341.41756 c -6.95807,0 -12.59866,-5.64059 -12.59866,-12.59866 z"
       fill-rule="evenodd"
       id="path12" />
    <path
       fill="#fff2cc"
       d="m 498.89764,358.18924 v 0 c 0,-6.95807 5.64063,-12.59869 12.59866,-12.59869 h 107.08609 c 3.34143,0 6.5459,1.32736 8.90863,3.69006 2.36274,2.36273 3.69007,5.56723 3.69007,8.90863 v 50.39319 c 0,6.95807 -5.64063,12.59866 -12.5987,12.59866 H 511.4963 c -6.95804,0 -12.59866,-5.64059 -12.59866,-12.59866 z"
       fill-rule="evenodd"
       id="path13" />
    <path
       stroke="#bf9000"
       stroke-width="16"
       stroke-linejoin="round"
       stroke-linecap="butt"
       d="m 498.89764,358.18924 v 0 c 0,-6.95807 5.64063,-12.59869 12.59866,-12.59869 h 107.08609 c 3.34143,0 6.5459,1.32736 8.90863,3.69006 2.36274,2.36273 3.69007,5.56723 3.69007,8.90863 v 50.39319 c 0,6.95807 -5.64063,12.59866 -12.5987,12.59866 H 511.4963 c -6.95804,0 -12.59866,-5.64059 -12.59866,-12.59866 z"
       fill-rule="evenodd"
       id="path14" />
  </g>
</svg>
